<?xml version="1.0" encoding="UTF-8"?>
<svg width="446px" height="351px" viewBox="0 0 446 351" version="1.1" xmlns="http://www.w3.org/2000/svg" xmlns:xlink="http://www.w3.org/1999/xlink">
    <!-- Generator: Sketch 53.2 (72643) - https://sketchapp.com -->
    <title>illustration/contact us</title>
    <desc>Created with Sketch.</desc>
    <defs>
        <linearGradient x1="99.9914286%" y1="49.6659091%" x2="0.28%" y2="49.6659091%" id="linearGradient-1">
            <stop stop-color="#FF395F" offset="0%"></stop>
            <stop stop-color="#FF6E99" offset="56.42%"></stop>
            <stop stop-color="#FF9198" offset="100%"></stop>
        </linearGradient>
        <linearGradient x1="99.5214286%" y1="50.125%" x2="0.892857143%" y2="50.125%" id="linearGradient-2">
            <stop stop-color="#FF395F" offset="0%"></stop>
            <stop stop-color="#FF6E99" offset="56.42%"></stop>
            <stop stop-color="#FF9198" offset="100%"></stop>
        </linearGradient>
        <linearGradient x1="99.2533333%" y1="50.0291667%" x2="0.66%" y2="50.0291667%" id="linearGradient-3">
            <stop stop-color="#FF395F" offset="0%"></stop>
            <stop stop-color="#FF6E99" offset="56.42%"></stop>
            <stop stop-color="#FF9198" offset="100%"></stop>
        </linearGradient>
        <linearGradient x1="100.655172%" y1="51.6874041%" x2="0.410344828%" y2="51.6874041%" id="linearGradient-4">
            <stop stop-color="#FF395F" offset="0%"></stop>
            <stop stop-color="#FF6E99" offset="56.42%"></stop>
            <stop stop-color="#FF9198" offset="100%"></stop>
        </linearGradient>
        <linearGradient x1="98.9809524%" y1="50.75%" x2="0.666666667%" y2="50.75%" id="linearGradient-5">
            <stop stop-color="#FF395F" offset="0%"></stop>
            <stop stop-color="#FF6E99" offset="56.42%"></stop>
            <stop stop-color="#FF9198" offset="100%"></stop>
        </linearGradient>
        <linearGradient x1="1068.99897%" y1="-2411.51364%" x2="-337.345868%" y2="1007.32727%" id="linearGradient-6">
            <stop stop-color="#FFFFFF" offset="0%"></stop>
            <stop stop-color="#FFE7E1" offset="100%"></stop>
        </linearGradient>
        <linearGradient x1="796.113793%" y1="-610.526981%" x2="-321.572414%" y2="381.31795%" id="linearGradient-7">
            <stop stop-color="#FFFFFF" offset="0%"></stop>
            <stop stop-color="#FFE7E1" offset="100%"></stop>
        </linearGradient>
        <linearGradient x1="698.005671%" y1="-2252.02174%" x2="-221.071834%" y2="1018.16957%" id="linearGradient-8">
            <stop stop-color="#FFFFFF" offset="0%"></stop>
            <stop stop-color="#FFE7E1" offset="100%"></stop>
        </linearGradient>
        <linearGradient x1="821.314286%" y1="-972.038776%" x2="-336.289286%" y2="562.95102%" id="linearGradient-9">
            <stop stop-color="#FFFFFF" offset="0%"></stop>
            <stop stop-color="#FFE7E1" offset="100%"></stop>
        </linearGradient>
        <linearGradient x1="449.63094%" y1="-1114.76591%" x2="-136.346074%" y2="594.654545%" id="linearGradient-10">
            <stop stop-color="#FFFFFF" offset="0%"></stop>
            <stop stop-color="#FFE7E1" offset="100%"></stop>
        </linearGradient>
        <linearGradient x1="272.211143%" y1="-669.302171%" x2="-41.1761151%" y2="346.586298%" id="linearGradient-11">
            <stop stop-color="#FFFFFF" offset="0%"></stop>
            <stop stop-color="#FFE7E1" offset="100%"></stop>
        </linearGradient>
        <linearGradient x1="50.06%" y1="6.7882786%" x2="50.06%" y2="101.702095%" id="linearGradient-12">
            <stop stop-color="#7AC2A1" offset="0%"></stop>
            <stop stop-color="#FFFFFF" stop-opacity="0" offset="100%"></stop>
        </linearGradient>
        <linearGradient x1="50.021957%" y1="0.915506508%" x2="49.9802945%" y2="97.8889643%" id="linearGradient-13">
            <stop stop-color="#8ACDAF" offset="0.5030488%"></stop>
            <stop stop-color="#C6E0D2" offset="25.98%"></stop>
            <stop stop-color="#FFFFFF" stop-opacity="0" offset="100%"></stop>
        </linearGradient>
        <linearGradient x1="100.148122%" y1="50.1841438%" x2="0.111267606%" y2="50.1841438%" id="linearGradient-14">
            <stop stop-color="#097693" offset="0.1756561%"></stop>
            <stop stop-color="#005970" offset="70.87%"></stop>
        </linearGradient>
        <linearGradient x1="99.9018617%" y1="50.1895349%" x2="-0.119148936%" y2="50.1895349%" id="linearGradient-15">
            <stop stop-color="#097693" offset="0.1756561%"></stop>
            <stop stop-color="#005970" offset="100%"></stop>
        </linearGradient>
        <linearGradient x1="-0.129473684%" y1="49.8164063%" x2="100.040526%" y2="49.8164063%" id="linearGradient-16">
            <stop stop-color="#097693" offset="0%"></stop>
            <stop stop-color="#34A6CE" offset="100%"></stop>
        </linearGradient>
        <linearGradient x1="99.9865809%" y1="49.9034483%" x2="0.00496323529%" y2="49.9034483%" id="linearGradient-17">
            <stop stop-color="#097693" offset="0%"></stop>
            <stop stop-color="#34A6CE" offset="100%"></stop>
        </linearGradient>
        <linearGradient x1="84.2165953%" y1="7.76932585%" x2="40.0274567%" y2="67.3230802%" id="linearGradient-18">
            <stop stop-color="#B2DECA" offset="0%"></stop>
            <stop stop-color="#34A6CE" offset="99.5%"></stop>
        </linearGradient>
        <linearGradient x1="79.7364358%" y1="59.4244156%" x2="46.8405006%" y2="42.5412987%" id="linearGradient-19">
            <stop stop-color="#8ACDAF" offset="0.5030488%"></stop>
            <stop stop-color="#C6E0D2" offset="25.98%"></stop>
            <stop stop-color="#FFFFFF" offset="100%"></stop>
        </linearGradient>
        <linearGradient x1="100.087117%" y1="50.0866667%" x2="0.0742331288%" y2="50.0866667%" id="linearGradient-20">
            <stop stop-color="#FFFFFF" offset="0%"></stop>
            <stop stop-color="#C6E0D2" offset="74.02%"></stop>
            <stop stop-color="#8ACDAF" offset="99.5%"></stop>
        </linearGradient>
        <linearGradient x1="-6.2198364%" y1="43.7475337%" x2="64.8435583%" y2="57.6735377%" id="linearGradient-21">
            <stop stop-color="#8ACDAF" offset="0.5030488%"></stop>
            <stop stop-color="#C6E0D2" offset="25.98%"></stop>
            <stop stop-color="#FFFFFF" offset="100%"></stop>
        </linearGradient>
        <linearGradient x1="100.127895%" y1="49.9670984%" x2="0.191052632%" y2="49.9670984%" id="linearGradient-22">
            <stop stop-color="#FFFFFF" offset="0%"></stop>
            <stop stop-color="#C6E0D2" offset="74.02%"></stop>
            <stop stop-color="#8ACDAF" offset="99.5%"></stop>
        </linearGradient>
        <linearGradient x1="86.3666452%" y1="-50.711399%" x2="39.4742409%" y2="79.1927461%" id="linearGradient-23">
            <stop stop-color="#B2DECA" offset="0%"></stop>
            <stop stop-color="#34A6CE" offset="99.5%"></stop>
        </linearGradient>
        <linearGradient x1="50.1276235%" y1="50.3877948%" x2="0.10787037%" y2="104.748696%" id="linearGradient-24">
            <stop stop-color="#B2DECA" offset="0%"></stop>
            <stop stop-color="#34A6CE" offset="99.5%"></stop>
        </linearGradient>
        <linearGradient x1="62.9958042%" y1="16.4878146%" x2="17.6630769%" y2="115.812109%" id="linearGradient-25">
            <stop stop-color="#B2DECA" offset="0%"></stop>
            <stop stop-color="#34A6CE" offset="99.5%"></stop>
        </linearGradient>
        <linearGradient x1="100.234205%" y1="49.851397%" x2="-0.30087146%" y2="49.851397%" id="linearGradient-26">
            <stop stop-color="#1789BC" offset="0%"></stop>
            <stop stop-color="#34A6CE" offset="100%"></stop>
        </linearGradient>
        <linearGradient x1="57.9204366%" y1="52.7962673%" x2="3.44374217%" y2="33.532984%" id="linearGradient-27">
            <stop stop-color="#EEC5A8" offset="0.1257622%"></stop>
            <stop stop-color="#D99E76" offset="100%"></stop>
        </linearGradient>
        <linearGradient x1="58.0859589%" y1="56.132878%" x2="38.6607165%" y2="41.5092572%" id="linearGradient-28">
            <stop stop-color="#FF943A" offset="0%"></stop>
            <stop stop-color="#DE7B26" offset="100%"></stop>
        </linearGradient>
        <linearGradient x1="34.0233291%" y1="70.3638819%" x2="47.2830764%" y2="56.2360167%" id="linearGradient-29">
            <stop stop-color="#FF943A" offset="0%"></stop>
            <stop stop-color="#DE7B26" offset="100%"></stop>
        </linearGradient>
        <linearGradient x1="60.7599726%" y1="36.5104331%" x2="41.0156128%" y2="50.6897519%" id="linearGradient-30">
            <stop stop-color="#FF943A" offset="0%"></stop>
            <stop stop-color="#DE7B26" offset="100%"></stop>
        </linearGradient>
        <linearGradient x1="55.9873971%" y1="73.3657327%" x2="80.2438914%" y2="18.282108%" id="linearGradient-31">
            <stop stop-color="#5C6A79" offset="0%"></stop>
            <stop stop-color="#697D94" offset="100%"></stop>
        </linearGradient>
        <linearGradient x1="54.9924853%" y1="82.9638265%" x2="31.4408124%" y2="16.1104142%" id="linearGradient-32">
            <stop stop-color="#0A8D53" offset="0%"></stop>
            <stop stop-color="#057A45" offset="100%"></stop>
        </linearGradient>
        <linearGradient x1="41.0146749%" y1="48.3412203%" x2="69.704701%" y2="53.5693577%" id="linearGradient-33">
            <stop stop-color="#1C2A39" offset="0%"></stop>
            <stop stop-color="#000000" offset="100%"></stop>
        </linearGradient>
        <linearGradient x1="45.6364523%" y1="53.2385146%" x2="72.8402172%" y2="36.3953827%" id="linearGradient-34">
            <stop stop-color="#EEC5A8" offset="0.1257622%"></stop>
            <stop stop-color="#D99E76" offset="100%"></stop>
        </linearGradient>
        <linearGradient x1="48.2247189%" y1="33.8115493%" x2="47.6618998%" y2="18.2580055%" id="linearGradient-35">
            <stop stop-color="#0A8D53" offset="0%"></stop>
            <stop stop-color="#057A45" offset="100%"></stop>
        </linearGradient>
        <linearGradient x1="34.9526951%" y1="65.3702206%" x2="58.6268914%" y2="39.96875%" id="linearGradient-36">
            <stop stop-color="#0A8D53" offset="0%"></stop>
            <stop stop-color="#057A45" offset="100%"></stop>
        </linearGradient>
        <linearGradient x1="47.9884895%" y1="38.7062256%" x2="17.2805013%" y2="86.3786776%" id="linearGradient-37">
            <stop stop-color="#0A8D53" offset="0%"></stop>
            <stop stop-color="#057A45" offset="100%"></stop>
        </linearGradient>
        <linearGradient x1="55.1823463%" y1="56.1647137%" x2="46.25714%" y2="2.07333955%" id="linearGradient-38">
            <stop stop-color="#5C6A79" offset="0%"></stop>
            <stop stop-color="#697D94" offset="100%"></stop>
        </linearGradient>
    </defs>
    <g id="Page-1" stroke="none" stroke-width="1" fill="none" fill-rule="evenodd">
        <g id="1920-screen" transform="translate(-435.000000, -4711.000000)">
            <g id="cantact-us" transform="translate(0.000000, 4429.000000)">
                <g id="illustration/contact-us" transform="translate(435.000000, 282.000000)">
                    <g id="contact-us">
                        <g id="plane-3" transform="translate(214.000000, 13.000000)">
                            <path d="M15.1,111.9 C13.4,112.6 -22.6,100.8 25.6,58.3 C52.5,34.6 81.6,20.4 81.6,20.4" id="Path" stroke="#0A8D53" stroke-linecap="round" stroke-dasharray="1,6"></path>
                            <polygon id="XMLID_580_" fill="#FF943A" fill-rule="nonzero" points="114.4 1.7 83.7 7.3 81.4 20.9"></polygon>
                            <polygon id="XMLID_566_" fill="#E07D28" fill-rule="nonzero" points="81.4 20.9 86.9 13.3 114.4 1.7"></polygon>
                            <polygon id="XMLID_565_" fill="#FFAB6C" fill-rule="nonzero" points="86.9 13.3 88.6 29.1 114.4 1.7"></polygon>
                            <polygon id="XMLID_579_" fill="#FFAB6C" fill-rule="nonzero" points="114.4 1.7 83.7 7.3 74.4 0.1"></polygon>
                        </g>
                        <g id="plane-2" transform="translate(242.000000, 99.000000)">
                            <path d="M0,102.3 C7.7,109.4 22.9,123.9 32.1,135.7 C54.5,164.6 66.5,192.8 112.6,198.7 C196.6,209.5 160.6,105.9 147.6,81.4 C136.3,60.1 130.4,50.8 127.6,46.9" id="Path" stroke="#088C54" stroke-linecap="round" stroke-dasharray="0.9908,5.9446"></path>
                            <polygon id="Path" fill="#17A063" fill-rule="nonzero" points="126.5 30.3 143.1 26.7 88.6 0.7"></polygon>
                            <polygon id="Path" fill="#0A8D53" fill-rule="nonzero" points="126.5 30.3 125.5 44.2 120.1 34.7 88.6 0.7"></polygon>
                            <polygon id="Path" fill="#057A46" fill-rule="nonzero" points="125.5 44.2 115.7 38.9 120.1 34.7"></polygon>
                            <polygon id="Path" fill="#17A063" fill-rule="nonzero" points="120.1 34.7 107.7 50.2 88.6 0.7"></polygon>
                        </g>
                        <g id="plane1" transform="translate(37.000000, 32.000000)">
                            <path d="M32.7,47.3 C32.7,47.3 -11.3,86 3.5,151 C17,209.9 100.7,250.4 137.5,234.2" id="Path" stroke="#088C54" stroke-linecap="round" stroke-dasharray="1,6"></path>
                            <polygon id="Path" fill="#097693" fill-rule="nonzero" points="32.7 47.3 87.3 0.5 37.5 34.8"></polygon>
                            <polygon id="Path" fill="#33A6CE" fill-rule="nonzero" points="87.3 0.5 28 29.3 8.5 18"></polygon>
                            <polygon id="Path" fill="#33A6CE" fill-rule="nonzero" points="87.3 0.5 37.5 34.8 57 46"></polygon>
                            <polygon id="Path" fill="#1789BC" fill-rule="nonzero" points="37.5 34.8 87.3 0.5 28 29.3 32.7 47.3"></polygon>
                        </g>
                        <g id="mail-box" transform="translate(194.000000, 83.000000)" fill-rule="nonzero">
                            <g id="Group" transform="translate(41.000000, 0.000000)">
                                <path d="M20.4,58.9 L21.9,58 C20.8,57.4 19.9,55.8 19.9,54.5 L18.4,55.4 C18.4,56.6 19.3,58.2 20.4,58.9 Z" id="Path" fill="url(#linearGradient-1)"></path>
                                <polygon id="Path" fill="url(#linearGradient-2)" points="21.7 59.6 23.2 58.7 21.9 58 20.4 58.9"></polygon>
                                <polygon id="Path" fill="url(#linearGradient-3)" points="18.4 55.4 19.9 54.5 19.9 53 18.4 53.9"></polygon>
                                <path d="M23.1,59.7 L24.6,58.8 C24.2,59 23.7,59 23.2,58.7 L21.7,59.6 C22.3,59.9 22.8,60 23.1,59.7 Z" id="Path" fill="url(#linearGradient-4)"></path>
                                <path d="M20.5,51.7 L19,52.6 C18.6,52.8 18.4,53.3 18.4,53.9 L19.9,53 C19.9,52.4 20.1,52 20.5,51.7 Z" id="Path" fill="url(#linearGradient-5)"></path>
                                <path d="M23.1,59.7 L24.6,58.8 C25,58.6 25.2,58.1 25.2,57.5 L23.7,58.4 C23.7,59.1 23.5,59.5 23.1,59.7 Z" id="Path" fill="url(#linearGradient-6)"></path>
                                <path d="M20.5,51.7 L19,52.6 C19.4,52.4 19.9,52.4 20.4,52.7 L21.9,51.8 C21.4,51.6 20.8,51.5 20.5,51.7 Z" id="Path" fill="url(#linearGradient-7)"></path>
                                <polygon id="Path" fill="url(#linearGradient-8)" points="23.7 58.4 25.2 57.6 25.2 56.1 23.7 57"></polygon>
                                <polygon id="Path" fill="url(#linearGradient-9)" points="21.7 53.5 23.2 52.6 21.9 51.9 20.4 52.7"></polygon>
                                <path d="M19.6,48.9 L21.1,48 C20.1,47.7 19.2,47.8 18.5,48.2 L17,49.1 C17.8,48.8 18.6,48.7 19.6,48.9 Z" id="Path" fill="#D83E58"></path>
                                <path d="M23.7,57 L25.2,56.1 C25.2,54.8 24.3,53.3 23.2,52.6 L21.7,53.5 C22.8,54.1 23.7,55.7 23.7,57 Z" id="Path" fill="url(#linearGradient-10)"></path>
                                <path d="M25.2,63.2 L26.7,62.3 C27.7,61.7 28.4,60.4 28.4,58.6 C28.4,56.8 27.8,54.8 26.7,53 C26,51.9 25.2,50.8 24.3,50 L22.8,50.9 C23.7,51.7 24.5,52.8 25.2,53.9 C26.2,55.7 26.9,57.7 26.9,59.5 C26.9,61.3 26.2,62.6 25.2,63.2 Z" id="Path" fill="#D83E58"></path>
                                <path d="M0.8,1.5 L22.9,14.3 L22.8,50.9 C23.7,51.7 24.5,52.8 25.2,53.9 C26.2,55.7 26.9,57.7 26.9,59.5 C26.9,63.1 24.3,64.6 21.1,62.8 C19.5,61.9 18.1,60.3 17,58.5 C16,56.7 15.3,54.7 15.3,52.9 C15.3,51.1 16,49.8 17,49.2 C17.7,48.8 18.6,48.7 19.6,49 L16.6,22.9 L4,15.6 L0.8,1.5 Z M18.4,53.9 L18.4,55.4 C18.4,56.7 19.3,58.2 20.4,58.9 L21.7,59.6 C22.8,60.2 23.7,59.7 23.7,58.4 L23.7,56.9 C23.7,55.6 22.8,54.1 21.7,53.4 L20.4,52.7 C19.3,52.1 18.4,52.6 18.4,53.9 L18.4,53.9 Z" id="Shape" fill="#F6923E"></path>
                                <path d="M20.4,52.7 C19.3,52.1 18.4,52.6 18.4,53.9 L18.4,55.4 C18.4,56.7 19.3,58.2 20.4,58.9 L21.7,59.6 C22.8,60.2 23.7,59.7 23.7,58.4 L23.7,56.9 C23.7,55.6 22.8,54.1 21.7,53.4 L20.4,52.7 Z" id="Path" fill="url(#linearGradient-11)"></path>
                                <polygon id="Path" fill="#E07D28" points="22.8 50.8 24.3 50 24.4 13.4 22.9 14.2"></polygon>
                                <polygon id="Path" fill="#FFAB6C" points="22.9 14.2 24.4 13.4 2.3 0.6 0.8 1.5"></polygon>
                            </g>
                            <g id="Group" transform="translate(28.000000, 84.000000)">
                                <polygon id="Path" fill="url(#linearGradient-12)" points="8.7 183 17.1 177.1 17.2 6.4 8.8 12.2"></polygon>
                                <polygon id="Path" fill="#013E59" points="8.8 12.2 17.2 6.4 8.7 0.5 0.3 6.3"></polygon>
                                <polygon id="Path" fill="url(#linearGradient-13)" points="0.3 6.3 0.1 177.1 8.7 183 8.8 12.2"></polygon>
                            </g>
                            <path d="M2.1,62.3 L26.1,76.2 L48.9,89.5 L50.6,90.5 L50.6,90.4 C50.6,90.1 50.6,89.7 50.6,89.4 C50.6,88.9 50.6,88.4 50.7,87.8 C50.7,87.5 50.7,87.3 50.8,87 C50.8,86.6 50.9,86.2 50.9,85.9 C51,85.5 51,85.1 51.1,84.7 C51.1,84.4 51.2,84.1 51.3,83.9 C51.3,83.8 51.3,83.6 51.4,83.5 C51.5,83.2 51.5,82.9 51.6,82.6 C51.7,82.2 51.8,81.7 51.9,81.3 C52,80.9 52.1,80.5 52.2,80.1 C52.3,79.8 52.4,79.5 52.5,79.3 C52.5,79.2 52.6,79.1 52.6,79 C52.7,78.7 52.8,78.3 52.9,78 C52.9,77.9 52.9,77.9 53,77.8 C53.3,77 53.6,76.3 53.9,75.5 C54.1,75.1 54.2,74.7 54.4,74.4 C54.8,73.5 55.2,72.7 55.6,71.8 C55.7,71.5 55.9,71.3 56,71 C56,70.9 56.1,70.9 56.1,70.8 C56.9,69.4 57.7,68 58.6,66.7 C58.8,66.4 58.9,66.2 59.1,66 C59.2,65.9 59.2,65.8 59.3,65.7 C59.5,65.4 59.8,65 60,64.7 C60.2,64.4 60.5,64 60.8,63.7 L60.8,63.7 C61.1,63.4 61.3,63.1 61.6,62.7 C61.9,62.4 62.1,62.1 62.4,61.7 C62.6,61.4 62.8,61.2 63.1,60.9 C63.1,60.9 63.2,60.8 63.2,60.8 C63.5,60.5 63.7,60.2 64,59.9 L64,59.9 C64.3,59.6 64.6,59.3 64.8,59 C65.1,58.7 65.4,58.4 65.7,58.2 C66.3,57.7 66.9,57.1 67.5,56.7 C67,56.4 66.5,56.1 66,55.8 C53.5,48.5 61.4,53.1 48.9,45.8 C47.5,45 46,44.1 44.6,43.3 C36.1,38.3 27.5,33.4 19,28.4 C9.3,36.5 2,50.5 2.1,62.3 Z" id="Path" fill="#E0ACC2"></path>
                            <path d="M50.1150804,90.1660706 L50.1150804,90.5 L50.5,118.8 L93.1,93.6 L55.5,71.7 C55.6,71.4 55.8,71.2 55.9,70.9 C55.8,71.2 55.6,71.4 55.5,71.7 C55.1,72.6 54.6,73.4 54.3,74.3 C54.1,74.7 54,75.1 53.8,75.4 C53.5,76.2 53.2,76.9 52.9,77.7 C52.9,77.7 52.9,77.8 52.8,77.9 C52.7,78.2 52.6,78.6 52.5,78.9 C52.5,79 52.4,79.1 52.4,79.2 C52.3,79.5 52.2,79.8 52.1,80 C52,80.4 51.9,80.8 51.8,81.2 C51.7,81.6 51.6,82.1 51.5,82.5 C51.4,82.8 51.4,83.1 51.3,83.4 C51.3,83.5 51.2,83.7 51.2,83.8 C51.1,84.1 51.1,84.4 51,84.6 C50.9,85 50.9,85.4 50.8,85.8 C50.8,86.2 50.7,86.6 50.7,86.9 C50.7,87.2 50.6,87.4 50.6,87.7 C50.6,88.2 50.1150804,88.4660706 50.1150804,89.0660706 C50.2150804,89.5660706 50.1150804,89.8660706 50.1150804,90.1660706 Z" id="Path" fill="url(#linearGradient-14)"></path>
                            <path d="M55.6,71.8 L93.2,93.7 L93.1,66 C93.1,65.6 93.1,65.3 93.1,64.9 C93.1,64.7 93.1,64.5 93.1,64.3 C93.1,64.2 93.1,64.2 93.1,64.1 C93.1,63.8 93.1,63.6 93,63.3 C93,63 92.9,62.7 92.9,62.5 C92.9,62.3 92.8,62.1 92.8,61.9 C92.8,61.8 92.8,61.7 92.7,61.6 C92.7,61.4 92.6,61.3 92.6,61.1 C92.5,60.6 92.4,60 92.2,59.5 C92.1,59.3 92.1,59.1 92,58.9 C92,58.8 92,58.8 91.9,58.7 C91.8,58.5 91.8,58.4 91.7,58.2 C91.6,58 91.5,57.8 91.4,57.5 C91.2,57.1 91,56.7 90.8,56.3 C90.7,56.1 90.6,55.9 90.5,55.7 C90.4,55.5 90.3,55.4 90.1,55.2 C90,55 89.9,54.9 89.7,54.7 C89.6,54.6 89.5,54.4 89.4,54.3 C89.3,54.2 89.3,54.1 89.2,54 C89.2,54 89.1,53.9 89.1,53.9 C89,53.8 88.9,53.7 88.9,53.7 C88.3,53.1 87.6,52.6 86.8,52.1 C86.7,52 86.6,52 86.5,51.9 C86.4,51.8 86.3,51.8 86.2,51.7 C85.5,51.3 84.7,51.1 83.9,50.9 C83.7,50.9 83.5,50.8 83.3,50.8 C83.1,50.8 82.9,50.7 82.7,50.7 C82.5,50.7 82.3,50.7 82.1,50.7 C81.2,50.7 80.2,50.7 79.2,50.9 C78.8,51 78.4,51 78,51.1 C77.6,51.2 77.2,51.3 76.8,51.4 C76.2,51.6 75.6,51.8 75,52 C74,52.4 73.1,52.9 72.1,53.4 C72,53.4 72,53.5 71.9,53.5 C71.2,53.9 70.1,54.3 69.4,54.8 C68.9,55.2 68.3,55.6 67.8,56 C67.6,56.1 67.5,56.3 67.3,56.4 C66.7,56.9 66.1,57.4 65.5,57.9 C65.2,58.2 65,58.4 64.7,58.7 C64.4,59 64.1,59.2 63.8,59.5 C63.5,59.8 62.9,60.6 62.9,60.6 C62.7,60.9 62.4,61.1 62.2,61.4 C61.9,61.7 61.9,62.1 61.7,62.5 C61.4,62.8 61.2,63.1 60.9,63.5 C60.6,63.8 60.4,64.2 60.1,64.5 C59.8,64.8 59.6,65.2 59.4,65.5 C59.3,65.6 59.3,65.7 59.2,65.8 C59,66 58.9,66.3 58.7,66.5 C57.8,67.8 57,69.2 56.2,70.6 C56.2,70.7 56.1,70.7 56.1,70.8 C55.8,71.3 55.7,71.6 55.6,71.8 Z" id="Path" fill="url(#linearGradient-15)"></path>
                            <polygon id="Path" fill="url(#linearGradient-16)" points="49.7 118.8 49.7 120.5 68.7 131.6 68.7 129.8"></polygon>
                            <path d="M123.1,118.5 L123.1,116.7 C123.1,121.5 120,126.2 113.7,129.8 C101.3,137 81,137 68.7,129.8 L68.7,131.6 C81,138.8 101.3,138.8 113.7,131.6 C120,128 123.1,123.2 123.1,118.5 Z" id="Path" fill="url(#linearGradient-17)"></path>
                            <path d="M49.7,118.8 L68.7,129.9 C81,137.1 101.3,137.1 113.7,129.9 C126.1,122.7 126.2,111 113.8,103.8 L94.8,92.7 L49.7,118.8 Z" id="Path" fill="url(#linearGradient-18)"></path>
                            <g id="envelope" transform="translate(49.000000, 52.000000)">
                                <polygon id="Path" fill="url(#linearGradient-19)" points="49.5 29 31.1 35.9 49.4 67.5"></polygon>
                                <polygon id="Path" fill="url(#linearGradient-20)" points="19.5 28.5 0.5 39.4 49.4 67.5 31.1 35.9 25.9 37.8"></polygon>
                                <polygon id="Path" fill="url(#linearGradient-21)" points="49.5 29 44.1 25.9 0.6 0.8 19.5 28.5 25.9 37.8 31.1 35.9"></polygon>
                                <polygon id="Path" fill="url(#linearGradient-22)" points="0.6 0.8 0.5 39.4 19.5 28.5"></polygon>
                            </g>
                            <polygon id="Path" fill="url(#linearGradient-23)" points="48.8 91.6 0.3 63.4 0.4 93.1 48.8 121.3"></polygon>
                            <path d="M89.5738714,51.590983 L39.7,22 C35.5,19.6 29.7,19.9 23.3,23.6 L72.1593312,52 C78.4593312,48.3 85.3738714,49.090983 89.5738714,51.590983 Z" id="Path" fill="url(#linearGradient-24)"></path>
                            <path d="M72.1593312,51.9 L23.2,23.5 C10.5,30.8 0.2,48.7 0.2,63.3 L48.8,91.689661 C48.8,77.089661 59.4593312,59.3 72.1593312,51.9 Z" id="Path" fill="url(#linearGradient-25)"></path>
                            <path d="M73.2,105.1 L50.5,118.2 L50.4,90.5 L50.4,90.4 C50.4,90.1 50.4,89.7 50.4,89.4 C50.4,88.9 50.4,88.4 50.5,87.8 C50.5,87.5 50.5,87.3 50.6,87 C50.6,86.6 50.7,86.2 50.7,85.9 C50.8,85.5 50.8,85.1 50.9,84.7 C50.9,84.4 51,84.1 51.1,83.9 C51.1,83.8 51.1,83.6 51.2,83.5 C51.3,83.2 51.3,82.9 51.4,82.6 C51.5,82.2 51.6,81.7 51.7,81.3 C51.8,80.9 51.9,80.5 52,80.1 C52.1,79.8 52.2,79.5 52.3,79.3 C52.3,79.2 52.4,79.1 52.4,79 C52.5,78.7 52.6,78.3 52.7,78 C52.7,77.9 52.7,77.9 52.8,77.8 C53.1,77 53.4,76.3 53.7,75.5 C53.9,75.1 54,74.7 54.2,74.4 C54.6,73.5 55,72.7 55.4,71.8 C55.5,71.5 55.7,71.3 55.8,71 C55.8,70.9 55.9,70.9 55.9,70.8 C56.7,69.4 57.5,68 58.4,66.7 C58.6,66.4 58.7,66.2 58.9,66 C59,65.9 59,65.8 59.1,65.7 C59.3,65.4 59.6,65 59.8,64.7 C60,64.4 60.3,64 60.6,63.7 C60.9,63.4 61.1,63.1 61.4,62.7 C61.7,62.4 61.9,62.1 62.2,61.7 C62.4,61.4 62.6,61.2 62.9,60.9 C62.9,60.9 63,60.8 63,60.8 C63.3,60.5 63.5,60.2 63.8,59.9 C64.1,59.6 64.4,59.3 64.6,59 C64.9,58.7 65.2,58.4 65.5,58.2 C66.1,57.7 66.7,57.1 67.3,56.7 C67.5,56.6 67.6,56.4 67.8,56.3 C68.3,55.9 68.9,55.5 69.4,55.1 C70.1,54.6 70.8,54.2 71.6,53.7 C71.7,53.7 71.7,53.6 71.8,53.6 C72.8,53 73.8,52.6 74.7,52.2 C75.3,51.9 75.9,51.7 76.5,51.6 C76.9,51.5 77.3,51.4 77.7,51.3 C78.1,51.2 78.5,51.1 78.9,51.1 C79.9,50.9 80.8,50.9 81.8,50.9 C82,50.9 82.2,50.9 82.4,50.9 C82.6,50.9 82.8,50.9 83,51 C83.2,51 83.4,51.1 83.6,51.1 C84.4,51.3 85.2,51.5 85.9,51.9 C86,51.9 86.1,52 86.2,52.1 C86.3,52.1 86.4,52.2 86.5,52.3 C87.3,52.7 88,53.2 88.6,53.9 C88.7,54 88.8,54.1 88.8,54.1 C88.8,54.1 88.9,54.2 88.9,54.2 L89.1,54.5 C89.2,54.6 89.3,54.8 89.4,54.9 C89.5,55.1 89.7,55.2 89.8,55.4 C89.9,55.6 90,55.7 90.2,55.9 C90.3,56.1 90.4,56.3 90.5,56.5 C90.7,56.9 90.9,57.3 91.1,57.7 C91.2,57.9 91.3,58.1 91.4,58.4 C91.5,58.6 91.5,58.7 91.6,58.9 C91.6,59 91.7,59 91.7,59.1 C91.8,59.3 91.8,59.5 91.9,59.7 C92.1,60.2 92.2,60.7 92.3,61.3 C92.3,61.5 92.4,61.6 92.4,61.8 C92.4,61.9 92.4,62 92.5,62.1 C92.5,62.3 92.6,62.5 92.6,62.7 C92.6,63 92.7,63.2 92.7,63.5 C92.7,63.7 92.7,64 92.8,64.3 C92.8,64.4 92.8,64.4 92.8,64.5 C92.8,64.7 92.8,64.9 92.8,65.1 C92.8,65.4 92.8,65.8 92.8,66.2 L92.8,77.7646689 L94.6,78.7646689 L94.6,65.1 C94.6,57.8 92,52.7 87.8,50.3 C87.7,50.3 87.7,50.2 87.6,50.2 C87.5,50.2 87.4,50.1 87.4,50.1 C87.3,50.1 87.2,50 87.1,50 C87,50 86.9,49.9 86.9,49.9 C86.8,49.8 86.6,49.8 86.5,49.7 C86.1,49.5 85.7,49.4 85.3,49.3 C85.1,49.2 84.9,49.2 84.7,49.1 C84.5,49.1 84.3,49 84.1,49 C84.1,49 84,49 84,49 C83.8,49 83.6,48.9 83.4,48.9 C82.5,48.8 81.5,48.8 80.5,48.9 C80.2,48.9 79.9,49 79.6,49 C78.4,49.2 77.1,49.5 75.8,50 C74.5,50.5 73.1,51.1 71.7,51.9 C71.2,52.2 70.7,52.5 70.2,52.8 C70.1,52.8 70.1,52.9 70,52.9 C68.6,53.8 67.3,54.9 66,56 C61.4,60 57.3,65.4 54.3,71.2 C51.2,77.2 49.2,83.6 48.8,89.6 C48.8,90.3 48.7,91 48.7,91.6 L48.8,117.2 L48.8,121.3 L75.1,106.1 L73.2,105.1 Z" id="Path" fill="url(#linearGradient-26)"></path>
                        </g>
                        <g id="girl" transform="translate(141.000000, 13.000000)" fill-rule="nonzero">
                            <path d="M11.6,265.9 C11.6,265.9 6.7,268.7 4.2,270.9 C1.6,273.1 1,273.5 0.7,275.1 C0.4,276.7 1.3,278.6 2.9,281.3 C4.5,284 6.3,284.9 6.8,286.6 C7.7,289.6 5.5,293.5 11.5,299.7 C18.2,306.6 24.9,307.8 26.4,307.1 C27.3,306.7 28.5,305.5 28.5,305.5 C28.5,305.5 26.5,293.2 26.1,289.8 C25.5,284.6 22.6,277.7 22.6,277.7 L11.6,265.9 Z" id="Path" fill="#C6DFD2"></path>
                            <path d="M13.2,264.7 C13.2,264.7 8.7,266.9 6.1,269.2 C3.5,271.4 2.5,272.3 2.2,273.9 C1.9,275.5 2.8,277.4 4.4,280.1 C6,282.8 7.8,283.7 8.3,285.4 C9.2,288.4 7,292.3 13,298.5 C20.1,305.8 26.1,306.7 27.9,305.9 C30.3,304.8 27.6,294 27,288.8 C26.4,283.6 23.6,276.6 23.6,276.6 L13.2,264.7 Z" id="Path" fill="#5C6A79"></path>
                            <path d="M59.4,125 C59.4,125 63,129.1 64.8,130.8 C66.6,132.5 69,135.3 71,136.4 C73,137.5 78.8,141.5 81,143 C83.2,144.5 87.7,151.1 87.2,151.8 C86,153.3 79.9,150.9 78.2,150.8 C76.4,150.7 71.1,147.1 69.2,145.1 C67.3,143.1 67.9,141.3 66,140.5 C64.3,139.8 52.9,132.4 52.9,132.4 C52.9,132.4 51.2,128.7 53.2,126.1 C55.2,123.4 59.4,125 59.4,125 Z" id="Path" fill="url(#linearGradient-27)"></path>
                            <path d="M66.9,151.8 C66.9,151.8 69.9,168.3 71.6,179.2 C73.3,190.1 75.5,209.2 73.5,213.5 C71.6,217.8 57,234.2 52.8,240.7 C48.6,247.2 24.5,278.5 24.5,278.5 C24.5,278.5 19.3,277 16.4,272.7 C13.5,268.4 13.1,265 13.1,265 C13.1,265 28.4,242 32.2,234.8 C36,227.5 43.3,217.7 45,215.2 C46.6,212.7 50.9,209.6 51.2,207.2 C51.5,204.8 41.2,178.7 39.4,176.5 C37.6,174.3 36.8,160.8 41.9,156.9 C47,153.1 51.3,137.3 51.3,137.3 L60.5,135.8 L66.9,151.8 Z" id="Path" fill="#FF943A"></path>
                            <path d="M66.9,151.8 C66.9,151.8 69.9,168.3 71.6,179.2 C73.3,190.1 49.5,201.1 47.3,195.3 C44.3,187.2 40.3,177.8 39.3,176.5 C37.5,174.3 36.7,160.8 41.8,156.9 C46.9,153.1 51.2,137.3 51.2,137.3 L60.4,135.8 L66.9,151.8 Z" id="Path" fill="url(#linearGradient-28)"></path>
                            <path d="M37.5,261.4 C30.7,270.3 24.4,278.5 24.4,278.5 C24.4,278.5 19.2,277 16.3,272.7 C13.4,268.4 13,265 13,265 C13,265 28.3,242 32.1,234.8 C35.9,227.5 44,252.9 37.5,261.4 Z" id="Path" fill="url(#linearGradient-29)"></path>
                            <path d="M69.7,219.1 C64.5,225.8 55.8,236 52.8,240.7 C50.9,243.6 45,251.5 39.1,259.3 C31.8,268.9 28.3,241.9 32.1,234.7 C35.9,227.4 43.2,217.6 44.9,215.1 C46.5,212.6 50.8,209.5 51.1,207.1 C51.3,204.8 71.6,216.7 69.7,219.1 Z" id="Path" fill="url(#linearGradient-30)"></path>
                            <path d="M17.1,278.5 C17.1,278.5 19.9,272.4 24.3,272.7 C31.6,273.2 26.2,278.6 26.4,280.6 C26.6,282.6 26.0630538,284.227414 26.0630538,284.227414 L17.1,278.5 Z" id="Path" fill="url(#linearGradient-31)"></path>
                            <path d="M49.6,142.3 C49.6,142.3 51.7,142.2 54.6,140.6 C57.1,139.2 57.5,137.7 57.5,137.7 C57.5,137.7 53.9,81.7 54.3,75.7 C54.7,69.7 43.3,62.6 43.3,62.6 C43.3,62.6 43.6,64.7 41,65.7 C38.4,66.7 31.7,65.4 31.7,65.4 C31.7,65.4 37.1,80 41,88.3 C44.9,96.6 49.3,113.7 49.4,126.4 C49.7,138.8 49.6,142.3 49.6,142.3 Z" id="Path" fill="#1789BC"></path>
                            <path d="M54.2,16.8 C54.2,16.8 56.1,18 56,20.5 C55.8,23 55.3,25.3 55.3,25.3 C55.3,25.3 55.1,20.3 54.7,18.9 C54.3,17.5 54.2,16.8 54.2,16.8 Z" id="Path" fill="#1C2A39"></path>
                            <path d="M48.6,70 C48.6,70 50.5,70.3 51,73.3 C51.5,76.3 52.1,91.5 52.6,101.8 C53.1,112.1 53.9,126.3 55.6,136.6 C57.2,146.9 58.8,160.1 58.8,160.1 C58.8,160.1 62.1,157.7 64,156 C65.9,154.3 67.4,150.5 67.4,150.5 C67.4,150.5 64.3,139.4 62.2,133.9 C60.2,128.4 57.8,117.8 57.3,110.7 C56.8,103.5 61,85 61.5,78.3 C62,71.6 53,60.8 53,60.8 L48.9,64.1 L48.6,70 Z" id="Path" fill="#0A8D53"></path>
                            <path d="M48.6,70 C48.6,70 50.5,70.3 51,73.3 C51.4,75.5 58.6,75.4 59.5,71.5 C59.8,70.2 56.9,65.8 56.3,64.9 C55.1,63 53.2,60.7 53.2,60.7 L49.1,64 L48.6,70 Z" id="Path" fill="url(#linearGradient-32)"></path>
                            <path d="M43.6,63.6 L48.6,70 C48.6,70 49.8,66.8 51.7,66 C53.6,65.2 55.7,64.8 55.7,64.8 C55.7,64.8 52,58 50.7,55.9 C49.4,53.8 45.5,49.7 45.5,49.7 L41.1,58.4 L43.6,63.6 Z" id="Path" fill="#0A8D53"></path>
                            <path d="M29.8,310.7 C29.8,310.7 28,313.6 27.3,317.2 C26.3,322.3 29.2,322.5 31,324.2 C32.6,325.7 35.2,325.4 36.8,326.7 C38.4,327.9 40.4,332.4 45.5,335.4 C50.6,338.4 61.7,338.5 63.7,337.2 C64.7,336.5 64.9,333.3 64.6,332.3 C64.1,330.2 62.4,328.2 60.3,326.2 C56.2,322.2 49.9,315.4 48.3,313.1 C46.7,310.8 46.7,310.8 46.7,310.8 C46.7,310.8 40.3,314 35.9,313 C31.6,312 29.8,310.7 29.8,310.7 Z" id="Path" fill="#C6DFD2"></path>
                            <path d="M29.7,307.6 C29.4475669,308 27.4475669,312 27.0475669,315.6 C26.6475669,319.2 28.8475669,319.7 30.7475669,321.5 C32.3475669,323 34.9475669,322.7 36.5475669,324 C38.1475669,325.2 40.1475669,329.7 45.2475669,332.7 C50.3475669,335.7 61.4475669,335.8 63.4475669,334.5 C65.4475669,333.2 64.2475669,327.4 60.1475669,323.4 C56.0475669,319.4 49.7475669,312.6 48.1475669,310.3 C46.5475669,308 46.5475669,308 46.5475669,308 C46.5475669,308 40.1475669,311.2 35.7475669,310.2 C31.2475669,309.4 29.9524331,307.2 29.7,307.6 Z" id="Path" fill="#5C6A79"></path>
                            <path d="M40.2,7.2 C40.2,7.2 40.3,0.3 29.1,0.9 C17.9,1.5 14.6,8.8 13.5,16.3 C12.5,23.7 14.9,41.7 12,48.4 C9,55.1 5,58.3 1.5,58.1 C1.5,58.1 7.8,60.6 14.9,59.9 C22,59.2 24.8,57.5 29.4,53.6 C34,49.7 40.2,7.2 40.2,7.2 Z" id="Path" fill="url(#linearGradient-33)"></path>
                            <path d="M27.8,41.4 C27.8,41.4 29,44.3 28.3,48.1 C27.6,51.9 24.1,56.7 24.1,56.7 C24.1,56.7 23.9,57.1 27.4,61.9 C31,66.7 38.1,67 40.6,66.3 C43.1,65.7 43.4,63.6 43.4,63.6 C43.4,63.6 42.7,59.6 43.1,58 C43.5,56.4 45,54.2 45,54.2 L29.1,40.7 L27.8,41.4 Z" id="Path" fill="url(#linearGradient-34)"></path>
                            <path d="M20.7,15.7 C20.7,15.7 17.4,20.2 19,27.6 C20.5,34.9 24.8,38.4 24.8,38.4 L27.9,30.4 L20.7,15.7 Z" id="Path" fill="#1C2A39"></path>
                            <path d="M29,41.3 C29,41.3 30.8,49.6 38.7,52.4 C46.6,55.2 48.6,54.5 50,54.1 C51.3,53.7 55.2,42.3 54.9,39.3 C54.5,36.3 53.9,33.6 53.9,32.2 C53.9,30.8 55.1,27 55.3,24.9 C55.5,22.8 55,13.7 49.2,11.5 C43.4,9.3 34.1,3.6 24.6,12 C15.1,20.4 28.9,32.9 28.9,32.9 C28.9,32.9 26.8,29.8 24.5,30.6 C21.4,31.7 23.1,36.4 25,38.6 C25.6,39.3 26.4,40.6 27.3,41.1 C28.2,41.7 29,41.3 29,41.3 Z" id="Path" fill="#EEC5A8"></path>
                            <path d="M29.2,33.2 C29.2,33.2 29.4,31.6 32.1,30.5 C34.8,29.5 38.4,30.3 42.5,27.5 C46.6,24.7 51.8,17.9 51.8,17.9 C51.8,17.9 53.9,17.7 54.7,18.9 C54.7,18.9 54.7,13.5 48.2,10 C42.8,7 35,5.6 30.3,7.6 C23.6,10.4 18.7,14.9 19.6,23.7 C20,27.5 21.6,27.4 23.6,28.6 C26.8,30.4 29.2,33.2 29.2,33.2 Z" id="Path" fill="#1C2A39"></path>
                            <path d="M27.7,281.5 C27.2,281.1 26.3,280.5 25.1,280 C21.6,278.6 17.8,279.9 17.6,280 L18,281 C18,281 21.7,279.7 24.8,281 C26.7,281.8 27.5,282.6 27.7,282.8 C27.6,282.3 27.7,281.8 27.7,281.5 Z" id="Path" fill="#1C2A39"></path>
                            <path d="M26.1682335,284.339579 C26.0682335,284.239579 26,284.2 25.8,284.1 C22.3,282.7 18.5,284 18.3,284.1 L18.7,285.1 C18.7,285.1 22.4,283.8 25.5,285.1 C25.9,285.3 26.1719959,285.423085 26.4719959,285.623085 C26.2719959,285.223085 26.2682335,284.839579 26.1682335,284.339579 Z" id="Path" fill="#1C2A39"></path>
                            <path d="M19.5,288.5 L19.9,289.5 C19.9,289.5 23.6,288.2 26.7,289.5 C26.9,289.6 26.9092987,289.570959 27.1092987,289.670959 C27.1092987,289.419281 27.0663934,289.246712 27.0218506,288.946945 C27,288.799894 26.9611664,288.535004 26.9611664,288.535004 C23.3611664,286.935004 19.7,288.4 19.5,288.5 Z" id="Path" fill="#1C2A39"></path>
                            <path d="M10.4,170.2 C10.4,170.2 17.4,188.3 19.9,196.3 C22.4,204.3 25.6,213.6 25.3,219.7 C25,225.8 22.3,235.9 22.3,243 C22.3,250 25.1,274.6 25.9,280.6 C26.8,286.6 29.7,307.6 29.7,307.6 C29.7,307.6 33,311.9 39.5,310.7 C46,309.6 46.7,307.6 46.7,307.6 C46.7,307.6 45.7,284 45.1,276.9 C44.5,269.8 43.8,244.8 43.8,240.5 C43.8,236.2 46.8,223.5 46.8,218.2 C46.8,211.9 45.8,202.1 45.2,194.4 C44.6,186.7 45.1,167.7 44.7,161.3 C44.2,154.9 16.4,148 10.5,153.6 C4.6,159.3 10.4,170.2 10.4,170.2 Z" id="Path" fill="#FF943A"></path>
                            <path d="M39.3,72.7 C39.3,72.7 37.9,74.1 39.3,78 C40.7,81.9 49.4,93.6 50.5,100.8 C51.6,108.1 52.1,127.8 52.3,136.5 C52.5,145.2 54.4,162.5 54.4,162.5 C54.4,162.5 35.5,177.6 22.7,172.5 C9.9,167.4 13.1,154.5 13.1,154.5 C13.1,154.5 8.5,160 8.9,164.2 C9.3,168.4 10.4,170.2 10.4,170.2 C10.4,170.2 4.4,164.2 8.1,151.1 C11.8,138 20.9,131.3 21.6,123.9 C22.3,116.6 18.8,98.5 16.4,90.2 C13.9,81.9 8.7,69 8.7,69 C8.7,69 10.8,66.4 15.5,62.6 C20.2,58.8 24.8,55.8 24.8,55.8 C24.8,55.8 30.2,66 32.9,69.3 C35.6,72.8 39.3,72.7 39.3,72.7 Z" id="Path" fill="#0A8D53"></path>
                            <path d="M50.5,100.9 C51.6,108.2 52.1,127.9 52.3,136.6 C52.5,145.3 54.4,162.6 54.4,162.6 C54.4,162.6 35.5,177.7 22.7,172.6 C9.9,167.5 13.1,154.6 13.1,154.6 C13.1,154.6 8.5,160.1 8.9,164.3 C9.3,168.5 10.4,170.3 10.4,170.3 C10.4,170.3 4.4,164.3 8.1,151.2 C11.8,138.1 20.9,131.4 21.6,124 C21.8,121.7 21.6,118.3 21.2,114.5 C20.2,106.2 49.9,96.8 50.5,100.9 Z" id="Path" fill="url(#linearGradient-35)"></path>
                            <path d="M39.3,72.7 C39.3,72.7 38.8,73.7 38.7,74.3 C37.9,74.9 36.8,75.1 35.5,76.8 C33.6,79.1 31.6,83.1 31.6,83.1 C31.6,83.1 26.1,80.3 22.6,76 C16.5,68.4 13.2,64.5 17.9,60.7 C22.6,56.9 24.7,55.9 24.7,55.9 C24.7,55.9 30.1,66.1 32.8,69.4 C35.6,72.8 39.3,72.7 39.3,72.7 Z" id="Path" fill="url(#linearGradient-36)"></path>
                            <path d="M15.3,70.9 C15.3,70.9 16.2,109 24,109.2 C31.8,109.4 47.2,98.1 47.2,98.1 C47.2,98.1 36.6,88.7 33.3,86 C30.7,83.9 15.3,70.9 15.3,70.9 Z" id="Path" fill="url(#linearGradient-37)"></path>
                            <path d="M46.5,98.3 C46.5,98.3 56.6,95.4 59.4,93.1 C62.2,90.8 65.3,86.6 68.7,85.4 C72.1,84.2 66.9,91.8 66.9,91.8 C66.9,91.8 70.3,92 72.5,89.6 C74.7,87.2 75.7,83.9 79,84.2 C82.3,84.4 80.2,90.9 79,92.5 C77.8,94.1 75.5,98.9 70.6,99.8 C65.7,100.7 64.2,99.2 61.6,99.8 C59,100.4 49.6,109.7 49.6,109.7 C49.6,109.7 45.2,108.6 44.9,105.2 C44.6,101.9 46.5,98.3 46.5,98.3 Z" id="Path" fill="#EEC5A8"></path>
                            <path d="M9.5,68 C14.6,67 20.6,77.3 21.8,84.7 C22.9,92.1 24.5,102.1 26,104.6 C26,104.6 35.2,103 40,101 C43.3,99.6 45.3,98.5 46.2,98 C46.4,97.9 46.6,98.1 46.6,98.3 C46.2,99.6 45.6,102.6 46.8,105.4 C48.4,109 49.7,109.7 49.7,109.7 C49.7,109.7 46.5,112.3 38.8,115.1 C31,118 20.4,121.4 17.7,117.5 C13.8,111.9 10.6,101.3 9,95 C7.4,88.7 2,69.6 9.5,68 Z" id="Path" fill="#0A8D53"></path>
                            <path d="M31.2,79.6 C31.2,79.6 33.1,75.8 35.4,74.3 C37.4,73 39.3,72.7 39.3,72.7 C39.3,72.7 29,61.6 27.3,59.1 C25.6,56.6 26,53.9 26,53.9 C26,53.9 23,55.1 22,57 C20.9,58.9 20.4,61.2 23.7,67.4 C27,73.5 31.2,79.6 31.2,79.6 Z" id="Path" fill="#0A8D53"></path>
                            <path d="M41.4,316.6 C41.4,316.6 36.4,309.3 43.9,306.2 C48.1,304.4 49.0395473,311.513807 49.0395473,311.513807 L41.4,316.6 Z" id="Path" fill="url(#linearGradient-38)"></path>
                            <path d="M49.018146,311.297266 C48.318146,311.397266 47.4,311.3 46.2,311.8 C42.8,313.3 41,317 41,317.2 L41.9,317.6 C41.9,317.6 43.5,314.1 46.6,312.8 C48.5,312 49.518146,312.297266 49.818146,312.297266 C49.418146,311.897266 49.218146,311.597266 49.018146,311.297266 Z" id="Path" fill="#1C2A39"></path>
                            <path d="M51.2,314 C50.6,314.1 50,314.3 49.2,314.7 C45.8,316.2 44,319.9 44,320.1 L44.9,320.5 C44.9,320.5 46.5,317 49.6,315.7 C50.6,315.3 51.5,315.1 52,315 C51.8,314.6 51.5,314.3 51.2,314 Z" id="Path" fill="#1C2A39"></path>
                            <path d="M54.1608336,317.12988 C53.7608336,317.22988 53.6,317.3 53.2,317.5 C49.8,319 48,322.7 48,322.9 L48.9,323.3 C48.9,323.3 50.5,319.8 53.6,318.5 C54.2,318.2 54.5608336,318.22988 54.9608336,318.02988 C54.6608336,317.72988 54.3608336,317.42988 54.1608336,317.12988 Z" id="Path" fill="#1C2A39"></path>
                        </g>
                        <g id="small-planes" fill-rule="nonzero">
                            <g id="1" transform="translate(0.000000, 250.000000)">
                                <polygon id="XMLID_573_" fill="#D7E9DF" points="0 0.2 24.2 10.6 37.1 3.5"></polygon>
                                <polygon id="XMLID_552_" fill="#D7E9DF" points="0 0.2 21.6 15.8 24 31.1"></polygon>
                                <polygon id="XMLID_545_" fill="#B8D1C2" points="0 0.2 24.2 10.6 31.9 17.5 21.6 15.8"></polygon>
                                <polygon id="XMLID_544_" fill="#C7DDD0" points="0 0.2 31.9 17.5 24.2 10.6"></polygon>
                            </g>
                            <g id="3" transform="translate(413.000000, 314.000000)">
                                <polygon id="XMLID_667_" fill="#C7DDD0" points="4.2 8.5 0.7 14.8 33 14.8"></polygon>
                                <polygon id="XMLID_668_" fill="#B8D1C2" points="0.7 14.8 5.2 11.7 33 14.8"></polygon>
                                <polygon id="XMLID_655_" fill="#D7E9DF" points="0.7 0.4 4.2 8.5 33 14.8"></polygon>
                                <polygon id="XMLID_666_" fill="#D7E9DF" points="33 14.8 5.2 11.7 0 21.2"></polygon>
                            </g>
                            <g id="2" transform="translate(418.000000, 0.000000)">
                                <polygon id="Path" fill="#D7E9DF" points="10.9 24.3 0.8 26.4 27.1 0"></polygon>
                                <polygon id="Path" fill="#C7DDD0" points="10.9 24.3 14.2 32.1 15.6 25.2 27.1 0"></polygon>
                                <polygon id="Path" fill="#B8D1C2" points="14.2 32.1 19.1 26.4 15.6 25.2"></polygon>
                                <polygon id="Path" fill="#D7E9DF" points="15.6 25.2 28 31.6 27.1 0"></polygon>
                            </g>
                        </g>
                    </g>
                </g>
            </g>
        </g>
    </g>
</svg>